<svg width="279" height="215" viewBox="0 0 279 215" fill="none" xmlns="http://www.w3.org/2000/svg">
<path d="M176.51 0.664467C174.754 1.42384 172.618 3.84435 172.096 5.6004C171.906 6.31232 171.764 16.6113 171.764 28.4766C171.764 49.4543 171.811 50.1188 172.76 51.9697C173.282 53.0139 174.469 54.3428 175.323 54.9123L176.889 56.0039H225.11C271.574 56.0039 273.377 55.9565 274.801 55.1022C275.608 54.6276 276.795 53.3936 277.412 52.3969L278.551 50.5459L278.693 29.9004C278.788 15.5197 278.693 8.49552 278.313 6.73947C277.649 3.65451 275.608 1.13907 273.188 0.474621C272.049 0.189855 255.01 1.14441e-05 224.683 1.14441e-05C186.904 0.0474724 177.649 0.142397 176.51 0.664467ZM202.851 18.2725V20.8828H198.104H193.358V23.7305V26.5781H197.63H201.901V28.7139V30.8496H197.63H193.358V35.833V40.8164H190.748H188.138V28.2393V15.6621H195.494H202.851V18.2725ZM219.225 16.8012C221.74 17.8928 222.737 18.842 223.828 21.31C225.205 24.3 224.683 27.1951 222.404 29.4733C221.408 30.4225 220.364 31.2768 219.984 31.3717C219.509 31.5615 219.984 32.7006 221.787 35.5483C225.3 41.1012 225.252 40.8164 221.93 40.8164H219.082L216.662 36.6873C215.001 33.7922 214.004 32.5582 213.292 32.5108C212.39 32.4158 212.343 32.7006 212.343 36.6399V40.8164H209.732H207.122V28.1918V15.5197L212.248 15.757C215.38 15.9469 218.038 16.3266 219.225 16.8012ZM243.667 18.2725V20.8828H239.158H234.649V23.5406V26.1985L238.446 26.0086L242.243 25.8662V28.0969V30.375H238.446H234.649V33.2227V36.0703H239.395H244.142V38.4434V40.8164H236.785H229.429V28.2393V15.6621H236.548H243.667V18.2725ZM262.651 18.2725V20.8828H258.143H253.634V23.4932V26.1035H257.431H261.227V28.2393V30.375H257.431H253.634V33.2227V36.0703H258.38H263.126V38.4434V40.8164H255.769H248.413V28.2393V15.6621H255.532H262.651V18.2725Z" fill="url(#paint0_linear_1_12)"/>
<path d="M212.343 24.2051V27.5273H214.621C217.611 27.5273 218.987 26.5306 218.987 24.3949C218.987 22.0219 217.658 20.8828 214.716 20.8828H212.343V24.2051Z" fill="#C148EC"/>
<path d="M78.0283 8.11583C42.0529 11.9127 12.3423 38.0637 3.08745 74.0865C0.57202 83.9109 -0.044972 88.8943 0.00248896 100.38C0.00248896 111.865 0.666942 117.703 3.03999 126.958C7.50132 144.329 14.7154 156.953 26.8179 168.724C34.9812 176.65 41.958 181.68 50.6908 185.857C82.3472 201.045 118.323 195.966 145.043 172.615C147.274 170.622 150.691 167.205 152.542 165.069L155.959 161.13L149.647 155.197C146.182 151.922 140.107 146.275 136.215 142.573L129.144 135.881L123.401 141.671C120.221 144.851 116.329 148.363 114.716 149.454C105.698 155.435 96.7279 157.997 86.1441 157.428C77.791 157.048 70.1498 154.485 62.8408 149.739C57.6675 146.417 49.3144 137.827 46.5617 133.128C37.6865 117.988 35.8355 98.434 41.5308 79.9717C44.1412 71.4762 48.033 64.7367 53.7757 58.7092C60.088 52.1121 66.3529 48.2203 74.5636 45.7523C80.164 44.0912 89.5613 43.6641 96.2533 44.8031C106.742 46.6066 115.57 51.2578 122.784 58.8041C128.669 64.974 131.612 69.9574 135.693 80.6836C139.253 90.1283 150.121 118.273 155.295 131.467C157.905 138.111 164.36 154.77 169.628 168.486C174.944 182.203 181.113 198.197 183.392 204.082L187.521 214.761L205.793 214.903L224.066 214.998L251.213 142.62C266.116 102.848 278.313 70.1473 278.313 70.0049C278.313 69.8625 269.723 69.7676 259.234 69.7676H240.107L230.52 96.2508C214.051 141.529 207.075 160.56 206.742 161.225C206.505 161.604 204.037 155.719 200.288 145.847C189.419 117.039 178.598 87.8027 174.801 76.7918C169.106 60.2279 166.78 55.1021 161.417 46.9863C144.996 22.1168 117.041 7.30899 87.1882 7.64122C84.1033 7.68868 79.9742 7.87852 78.0283 8.11583Z" fill="url(#paint1_linear_1_12)"/>
<defs>
<linearGradient id="paint0_linear_1_12" x1="278.727" y1="28.002" x2="171.764" y2="28.002" gradientUnits="userSpaceOnUse">
<stop offset="0.05" stop-color="#6A3FFF"/>
<stop offset="1" stop-color="#FF4EDE"/>
</linearGradient>
<linearGradient id="paint1_linear_1_12" x1="278.313" y1="111.317" x2="0" y2="111.317" gradientUnits="userSpaceOnUse">
<stop offset="0.05" stop-color="#6A3FFF"/>
<stop offset="1" stop-color="#FF4EDE"/>
</linearGradient>
</defs>
</svg>
